<svg id="Layer_1" enable-background="new 0 0 512.003 512.003" height="512" viewBox="0 0 512.003 512.003" width="512" xmlns="http://www.w3.org/2000/svg"><g><g clip-rule="evenodd" fill-rule="evenodd"><path d="m183.49 276.628-.849-46.343-.849-46.343-1.357-74.099-.591-32.246-.944-51.511c-.387-21.121-32.014-22.107-32.014.997v434.918h40.001l-.849-46.344-.849-46.343-.849-46.343z" fill="#e8eaf0"/><path d="m180.435 109.843c28.66 12.452 64.877 34.516 94.109 74.099 9.861 13.353 18.928 28.699 26.641 46.343 6.103 13.96 11.359 29.357 15.491 46.343 3.477 14.293 6.159 29.711 7.881 46.344 1.501 14.504 2.273 29.932 2.204 46.343-.061 14.65-.791 30.084-2.268 46.343-1.341 14.757-3.296 30.195-5.925 46.344h36.193c49.4-262.507-89.758-352.62-174.918-384.404z" fill="#fff"/><path d="m274.544 183.942h-92.751l.849 46.343h118.543c-7.714-17.644-16.78-32.99-26.641-46.343z" fill="#a0c8ff"/><path d="m301.185 230.284h-118.543l.849 46.343h133.186c-4.134-16.985-9.389-32.383-15.492-46.343z" fill="#60a4ff"/><path d="m316.676 276.627h-133.186l.849 46.343h140.218c-1.722-16.631-4.404-32.049-7.881-46.343z" fill="#a0c8ff"/><path d="m324.557 322.971h-140.218l.849 46.343h141.573c.069-16.41-.703-31.838-2.204-46.343z" fill="#60a4ff"/><path d="m326.761 369.314h-141.573l.849 46.343h138.456c1.477-16.259 2.207-31.693 2.268-46.343z" fill="#a0c8ff"/><path d="m324.493 415.657h-138.455l.849 46.344h131.682c2.628-16.149 4.584-31.587 5.924-46.344z" fill="#60a4ff"/><path d="m318.568 462.001h-131.681-40.001-30.894l-20.001 40h320.001l-20.001-40h-41.229z" fill="#e6d5cf"/></g><g><path d="m424.936 497.529-20.001-40c-1.694-3.388-5.156-5.528-8.944-5.528h-29.29c29.719-178.497-18.925-316.533-176.983-381.324l-.82-44.774c-.323-16.971-13.784-26.005-26.396-25.902-12.729.116-25.616 9.456-25.616 27.082v171.911c.528 13.268 19.476 13.258 20 0v-171.912c0-5.81 3.153-7.058 5.799-7.083 1.396-.017 6.108.397 6.217 6.269l7.8 425.732h-19.816v-163.006c-.528-13.268-19.476-13.258-20 0v163.007h-20.895c-3.788 0-7.25 2.14-8.944 5.528l-20 40c-1.55 3.1-1.384 6.781.438 9.729s5.041 4.743 8.507 4.743h320c7.253.167 12.337-8.061 8.944-14.472zm-78.533-45.528h-16.183c20.996-157.033-7.595-282.8-139.904-348.676l-.199-10.877c96.436 40.846 195.479 136.44 156.286 359.553zm-29.738-72.687c-.227 8.522-.68 17.301-1.368 26.343h-119.441l-.483-26.343zm-121.658-20-.483-26.343h121.07c.657 8.474 1.063 17.252 1.201 26.343zm118.508-46.343h-119.357l-.483-26.343h115.317c1.798 8.407 3.318 17.178 4.523 26.343zm-.085 112.686c-.941 8.558-2.083 17.335-3.44 26.343h-113.285l-.483-26.343zm-120.121-159.029-.483-26.343h102.118c3.357 8.295 6.39 17.068 9.056 26.343zm-.85-46.343-.483-26.343h77.883c5.703 8.096 11.048 16.853 15.936 26.343zm-.849-46.343-.883-48.167c21.925 11.249 43.873 26.769 63.175 48.167zm-79.438 318.059 10-20h267.638l10.001 20z"/><path d="m146.886 253.994c13.268-.529 13.258-19.476 0-20h-.008c-13.268.53-13.25 19.478.008 20z"/></g></g></svg>